<svg xmlns="http://www.w3.org/2000/svg" width="16" height="16"><g fill="none"><path stroke="#FFBF00" d="M8 15c-3.86 0-7-3.14-7-7s3.14-7 7-7 7 3.14 7 7-3.14 7-7 7z"/><path fill="#FFBF00" d="M10.413 9.4h-5.05a.56.56 0 0 1-.493-.298.6.6 0 0 1 .042-.63c.07-.125.164-.283.274-.46a4.7 4.7 0 0 0 .505-1.081q.083-.268.084-.566c0-.274.04-.529.12-.755a2.06 2.06 0 0 1 1.183-1.27c.625-.29 1.663-.052 1.65.008a1.94 1.94 0 0 1 .854.664A2.26 2.26 0 0 1 10 6.357q0 .288.085.563a4.4 4.4 0 0 0 .509 1.083q.157.24.283.412c.087.116.13.25.122.388a.6.6 0 0 1-.099.304.6.6 0 0 1-.21.203.56.56 0 0 1-.277.089zm-3.99.757h3.042q-.282 1.226-1.521 1.226c-1.239 0-1.334-.409-1.521-1.226"/></g></svg>